<?xml version="1.0" encoding="UTF-8" standalone="no"?>
<!DOCTYPE svg PUBLIC "-//W3C//DTD SVG 1.1//EN"
 "http://www.w3.org/Graphics/SVG/1.1/DTD/svg11.dtd">
<!-- Generated by graphviz version 2.47.0 (20210316.0004)
 -->
<!-- Title: dependencies Pages: 1 -->
<svg width="778pt" height="284pt"
 viewBox="0.00 0.00 778.00 284.00" xmlns="http://www.w3.org/2000/svg" xmlns:xlink="http://www.w3.org/1999/xlink">
<g id="graph0" class="graph" transform="scale(1 1) rotate(0) translate(4 280)">
<title>dependencies</title>
<polygon fill="white" stroke="transparent" points="-4,4 -4,-280 774,-280 774,4 -4,4"/>
<text text-anchor="start" x="364.01" y="-42.4" font-family="Times-12" font-weight="bold" font-size="14.00">Legend</text>
<polygon fill="#ffffb3" stroke="transparent" points="151,-10 151,-30 171,-30 171,-10 151,-10"/>
<text text-anchor="start" x="174.63" y="-15.4" font-family="Times-12" font-size="14.00"> &#160;Declarations</text>
<polygon fill="#8dd3c7" stroke="transparent" points="264,-10 264,-30 284,-30 284,-10 264,-10"/>
<text text-anchor="start" x="287.73" y="-15.4" font-family="Times-12" font-size="14.00"> &#160;Module</text>
<polygon fill="#80b1d3" stroke="transparent" points="350,-10 350,-30 370,-30 370,-10 350,-10"/>
<text text-anchor="start" x="373.78" y="-15.4" font-family="Times-12" font-size="14.00"> &#160;Bootstrap</text>
<polygon fill="#fdb462" stroke="transparent" points="447,-10 447,-30 467,-30 467,-10 447,-10"/>
<text text-anchor="start" x="470.67" y="-15.4" font-family="Times-12" font-size="14.00"> &#160;Providers</text>
<polygon fill="#fb8072" stroke="transparent" points="543,-10 543,-30 563,-30 563,-10 543,-10"/>
<text text-anchor="start" x="566.73" y="-15.4" font-family="Times-12" font-size="14.00"> &#160;Exports</text>
<g id="clust1" class="cluster">
<title>cluster_AppModule</title>
<polygon fill="none" stroke="black" stroke-dasharray="1,5" points="8,-70 8,-268 762,-268 762,-70 8,-70"/>
</g>
<g id="clust9" class="cluster">
<title>cluster_AppModule_bootstrap</title>
<polygon fill="none" stroke="black" points="314,-208 314,-260 438,-260 438,-208 314,-208"/>
</g>
<g id="clust10" class="cluster">
<title>cluster_AppModule_providers</title>
<polygon fill="none" stroke="black" points="576,-78 576,-130 754,-130 754,-78 576,-78"/>
</g>
<g id="clust2" class="cluster">
<title>cluster_AppModule_declarations</title>
<polygon fill="none" stroke="black" points="16,-78 16,-130 568,-130 568,-78 16,-78"/>
</g>
<!-- AppComponent -->
<g id="node1" class="node">
<title>AppComponent</title>
<polygon fill="#ffffb3" stroke="black" points="559.94,-122 454.06,-122 454.06,-86 559.94,-86 559.94,-122"/>
<text text-anchor="middle" x="507" y="-99.8" font-family="Times,serif" font-size="14.00">AppComponent</text>
</g>
<!-- AppModule -->
<g id="node5" class="node">
<title>AppModule</title>
<polygon fill="#8dd3c7" stroke="black" points="417.66,-187 414.66,-191 393.66,-191 390.66,-187 334.34,-187 334.34,-151 417.66,-151 417.66,-187"/>
<text text-anchor="middle" x="376" y="-164.8" font-family="Times,serif" font-size="14.00">AppModule</text>
</g>
<!-- AppComponent&#45;&gt;AppModule -->
<g id="edge1" class="edge">
<title>AppComponent&#45;&gt;AppModule</title>
<path fill="none" stroke="black" d="M507,-122.02C507,-139.37 507,-163 507,-163 507,-163 427.81,-163 427.81,-163"/>
<polygon fill="black" stroke="black" points="427.81,-159.5 417.81,-163 427.81,-166.5 427.81,-159.5"/>
</g>
<!-- LoaderComponent -->
<g id="node2" class="node">
<title>LoaderComponent</title>
<polygon fill="#ffffb3" stroke="black" points="436.47,-122 315.53,-122 315.53,-86 436.47,-86 436.47,-122"/>
<text text-anchor="middle" x="376" y="-99.8" font-family="Times,serif" font-size="14.00">LoaderComponent</text>
</g>
<!-- LoaderComponent&#45;&gt;AppModule -->
<g id="edge2" class="edge">
<title>LoaderComponent&#45;&gt;AppModule</title>
<path fill="none" stroke="black" d="M376,-122.11C376,-122.11 376,-140.99 376,-140.99"/>
<polygon fill="black" stroke="black" points="372.5,-140.99 376,-150.99 379.5,-140.99 372.5,-140.99"/>
</g>
<!-- RepositoryComponent -->
<g id="node3" class="node">
<title>RepositoryComponent</title>
<polygon fill="#ffffb3" stroke="black" points="297.27,-122 154.73,-122 154.73,-86 297.27,-86 297.27,-122"/>
<text text-anchor="middle" x="226" y="-99.8" font-family="Times,serif" font-size="14.00">RepositoryComponent</text>
</g>
<!-- RepositoryComponent&#45;&gt;AppModule -->
<g id="edge3" class="edge">
<title>RepositoryComponent&#45;&gt;AppModule</title>
<path fill="none" stroke="black" d="M226,-122.02C226,-139.37 226,-163 226,-163 226,-163 324.22,-163 324.22,-163"/>
<polygon fill="black" stroke="black" points="324.22,-166.5 334.22,-163 324.22,-159.5 324.22,-166.5"/>
</g>
<!-- ToastComponent -->
<g id="node4" class="node">
<title>ToastComponent</title>
<polygon fill="#ffffb3" stroke="black" points="136.44,-122 23.56,-122 23.56,-86 136.44,-86 136.44,-122"/>
<text text-anchor="middle" x="80" y="-99.8" font-family="Times,serif" font-size="14.00">ToastComponent</text>
</g>
<!-- ToastComponent&#45;&gt;AppModule -->
<g id="edge4" class="edge">
<title>ToastComponent&#45;&gt;AppModule</title>
<path fill="none" stroke="black" d="M80,-122.28C80,-143.32 80,-175 80,-175 80,-175 324.22,-175 324.22,-175"/>
<polygon fill="black" stroke="black" points="324.22,-178.5 334.22,-175 324.22,-171.5 324.22,-178.5"/>
</g>
<!-- AppComponent  -->
<g id="node6" class="node">
<title>AppComponent </title>
<polygon fill="#80b1d3" stroke="black" points="430.44,-252 321.56,-252 321.56,-216 430.44,-216 430.44,-252"/>
<text text-anchor="middle" x="376" y="-229.8" font-family="Times,serif" font-size="14.00">AppComponent </text>
</g>
<!-- AppModule&#45;&gt;AppComponent  -->
<g id="edge5" class="edge">
<title>AppModule&#45;&gt;AppComponent </title>
<path fill="none" stroke="black" stroke-dasharray="1,5" d="M376,-187.11C376,-187.11 376,-205.99 376,-205.99"/>
<polygon fill="black" stroke="black" points="372.5,-205.99 376,-215.99 379.5,-205.99 372.5,-205.99"/>
</g>
<!-- LoaderInterceptor -->
<g id="node7" class="node">
<title>LoaderInterceptor</title>
<ellipse fill="#fdb462" stroke="black" cx="665" cy="-104" rx="80.98" ry="18"/>
<text text-anchor="middle" x="665" y="-99.8" font-family="Times,serif" font-size="14.00">LoaderInterceptor</text>
</g>
<!-- LoaderInterceptor&#45;&gt;AppModule -->
<g id="edge6" class="edge">
<title>LoaderInterceptor&#45;&gt;AppModule</title>
<path fill="none" stroke="black" d="M665,-122.28C665,-143.32 665,-175 665,-175 665,-175 427.71,-175 427.71,-175"/>
<polygon fill="black" stroke="black" points="427.71,-171.5 417.71,-175 427.71,-178.5 427.71,-171.5"/>
</g>
</g>
</svg>
